PathFileType	4	(X/Y/Z)	66_1_51_p1_0-199_filt_butterworth.trc
DataRate	CameraRate	NumFrames	NumMarkers	Units	OrigDataRate	OrigDataStartFrame	OrigNumFrames
48.0	48.0	6	27	m	48.0	99	199
Frame#	Time	RHip			RKnee			RAnkle			RBigToe			RSmallToe			RHeel			LHip			LKnee			LAnkle			LBigToe			LSmallToe			LHeel			Neck			Head			Nose			RShoulder			RElbow			RWrist			RThumb			RIndex			RPinky			LShoulder			LElbow			LWrist			LThumb			LIndex			LPinky			
		X1	Y1	Z1	X2	Y2	Z2	X3	Y3	Z3	X4	Y4	Z4	X5	Y5	Z5	X6	Y6	Z6	X7	Y7	Z7	X8	Y8	Z8	X9	Y9	Z9	X10	Y10	Z10	X11	Y11	Z11	X12	Y12	Z12	X13	Y13	Z13	X14	Y14	Z14	X15	Y15	Z15	X16	Y16	Z16	X17	Y17	Z17	X18	Y18	Z18	X19	Y19	Z19	X20	Y20	Z20	X21	Y21	Z21	X22	Y22	Z22	X23	Y23	Z23	X24	Y24	Z24	X25	Y25	Z25	X26	Y26	Z26	X27	Y27	Z27	
99	2.0625	0.5698451748059304	0.8444924261520045	0.993780500095117	0.5665035535775107	0.3297117423654795	1.0759770709422933	0.537191125632312	-0.07384459246928964	1.1382550762892698	0.49363999885585685	-0.11683956912010564	0.9283345082747017	0.5611286221750524	-0.104754812522779	0.9516605497343847	0.5104061026887059	-0.16562598356038305	1.2504790479786905	0.3835517061998476	0.844216035697262	1.0023203286419284	0.3725513944527956	0.34333382309745647	1.0808474031501112	0.36823464072117684	-0.09932591743747518	1.1880433549366098	0.34672202257284773	-0.10049033536340982	0.9476143150504914	0.2913906121375433	-0.10808842202543847	1.0081958460774474	0.3841903853846371	-0.160092680334175	1.2516251616089666	0.4791311228938401	1.3421903438110012	0.9005582162627433	0.45786380173383445	1.6134674150482393	0.8063440706857392	0.4580785414317823	1.4545546528829894	0.7338123196879845	0.618745739653819	1.27076864811118	0.8642319100800444	0.6721693832526249	0.9885427991881822	0.9452171106078018	0.5652300879876646	0.7739458681849171	0.859973825969816	0.46910617375040087	0.6976769473010654	0.7684783349537706	0.479887071630701	0.6734704046115009	0.7629158247178152	0.5292629830813927	0.6539404950998828	0.8276083900057364	0.35852523826145116	1.2678795913654073	0.9313134006752345	0.3092604969531962	1.0123201415947718	1.0293781874134411	0.35204689709442005	0.7695354933701637	0.9202538542089093	0.4109244122632029	0.6876341938683256	0.8671847376072532	0.39066691766894435	0.6713182829374393	0.8542107724421597	0.362186482615537	0.645547776466163	0.9379368612011515	
100	2.083333333333333	0.5699328550295147	0.8453743765244697	0.9950666610715235	0.565265575147967	0.33062163647382337	1.0750811974163452	0.5366310117453621	-0.07526919338911699	1.1394997605687542	0.4945090076350051	-0.11803733275322667	0.9292925527324484	0.5612408769722091	-0.10604605116871414	0.9534299444817053	0.5104232527050145	-0.16651481215508476	1.2496043791333582	0.3832950619139898	0.846556858048481	1.0016906387430935	0.3734818268941791	0.34724384275084885	1.0771308910081687	0.36880389600186114	-0.10017990579779208	1.1876804425571175	0.3473860763647024	-0.1017249496986881	0.9490365266265388	0.29145196642228643	-0.10831519962577196	1.007892964452315	0.38408605481888586	-0.1611953276337632	1.251515227710311	0.4792626580977481	1.338928365452799	0.9008465045566016	0.4595202649030802	1.6106444246167209	0.7993959643658888	0.4584561212261865	1.4511100307876383	0.7297448966519826	0.6178318749892726	1.2671084928504956	0.8639100782645656	0.6730766757910835	0.9877885665720646	0.9468069689457804	0.5717137395473689	0.7679117763387561	0.8702626386806193	0.4794213197566474	0.6956584255591693	0.7628467337440198	0.4919253376211569	0.6684817705493278	0.7607020221160745	0.5404265506685787	0.6481585137674808	0.8293846168188748	0.35786049274373194	1.2651183753496489	0.9307104945188177	0.30816027960719966	1.0117314810092974	1.0294629505303408	0.3438300193992541	0.769234681628326	0.9188892711612516	0.40098181808960665	0.6800427905043485	0.8819700924489583	0.3744122211779146	0.6670518647353	0.8616424988945443	0.34904470799634346	0.6437888318286271	0.9452085426434566	
101	2.1041666666666665	0.5699968913449829	0.8456182713935024	0.9968528256485483	0.5639412875991613	0.33116984977127484	1.0744928514553225	0.5362430972809997	-0.07686287690691483	1.141121097459069	0.49493024373564143	-0.11909233638157896	0.9306568883166565	0.5613385546245051	-0.10638282128428848	0.9541766567337151	0.5103897102018882	-0.1677641659313898	1.248690331578748	0.38317111318939884	0.8482114550193787	1.0011173787641732	0.3743588673570262	0.35067983174936057	1.0738081180911703	0.3693220778095703	-0.10095259417098913	1.1871145820899018	0.3480510417414924	-0.1028555317671154	0.9491479323054396	0.29157102293372517	-0.10795212878003387	1.0075201759643204	0.38405509967080065	-0.16222783962192674	1.2512254176193274	0.4794425456646487	1.3356814455018842	0.9012126925416215	0.4612519774952993	1.607187919056194	0.7909117584860555	0.45933850344995014	1.447663622847403	0.725113595372362	0.6170093307728433	1.2634519819358787	0.8652507441840367	0.6741504302140628	0.9864524738514253	0.9477415516014334	0.5781910182649075	0.7619399017709593	0.8801665511655421	0.48880550591782806	0.6902105757676212	0.7668767444473321	0.5028768286044635	0.6610568592781612	0.7692559144426661	0.5504132804032235	0.6415279162067287	0.8350528886795836	0.3566687655337943	1.2622543807838276	0.9296229666400022	0.3070814153194168	1.0105909768255716	1.02803528875727	0.3360527739645913	0.7667471257281055	0.9205188395124305	0.3921369814842356	0.6726619673981122	0.8974519154534999	0.3599867992279446	0.6627234859543057	0.868222034419806	0.33578593413920965	0.6419707431023111	0.9525580986974652	
102	2.125	0.5699411673964812	0.8452133440314963	0.9992187889911435	0.5626433783772785	0.3313463135872805	1.0743193848699748	0.5360264719440395	-0.07841671620517542	1.142935873073232	0.49476461931808025	-0.12040485449550885	0.9332200883321303	0.5613965163501418	-0.10637952198846387	0.9544350929528818	0.5104049242147995	-0.16923405579804535	1.2478102751389473	0.3832144950887712	0.8492087175810398	1.0006956083991043	0.37503635209572356	0.353490642271722	1.0712648556503304	0.36977131853969764	-0.10160895290407257	1.1865758663768655	0.3485071702559135	-0.10378362287634657	0.9482521334682222	0.2917253772851151	-0.1075314085102552	1.007251394317838	0.3840833776803431	-0.16333154663974953	1.2509110184333052	0.4796459433794795	1.3322977125171853	0.9015717027389304	0.4628346740071775	1.6030800673799381	0.781251101848494	0.4604863821856211	1.4439977682846483	0.7201460311612689	0.6163363390084267	1.2605269405570783	0.8676046817459163	0.6754067352447328	0.9850672976653364	0.9468626141865744	0.5850598128056477	0.7569247508074815	0.8882853122043676	0.49679076549122136	0.6819034742434353	0.7787997433990717	0.5124302565216561	0.6518269082863009	0.7851297363907421	0.5593182437174149	0.6348672918854636	0.8423202841449361	0.35514863889399995	1.2598276569515021	0.9276411531378725	0.3060987768243089	1.0091176074144894	1.025155304103057	0.3290216272863292	0.7626562746703734	0.9250039692941715	0.38360913793240453	0.666540457735985	0.9098762077602005	0.34806650386027016	0.6595064210759743	0.8708307958603266	0.32343978314700417	0.6401540436746195	0.9594048139023413	
103	2.145833333333333	0.5697709664424099	0.8441682447498458	1.0023466668650332	0.561393285396785	0.3311224461899288	1.074616501950278	0.5358219406797213	-0.0797523800653316	1.1446735525757763	0.49431962118616624	-0.12271069905184954	0.9376509758736966	0.5613540077600903	-0.10633103086925094	0.9543139818430105	0.5104750864951425	-0.17056248329000026	1.2470496661083148	0.38325699510081535	0.8494864265636303	1.000684797842816	0.37539987608134046	0.35564848748306044	1.0696613401501875	0.3701638672122825	-0.1020660984561017	1.1862027183697772	0.3487290824226661	-0.1043285560679786	0.9472830347506381	0.29188508226048576	-0.10787626293466371	1.0072382490609142	0.38419281705192315	-0.1645535530480122	1.2506506316450419	0.479849612085845	1.3289403904101	0.9018328378144704	0.4641314293598019	1.5985818021586005	0.7705513334088585	0.46161959247627343	1.440079263666081	0.7156757275057779	0.6159114917634512	1.258483634622395	0.8701830497764332	0.6766706348948277	0.9839291986055122	0.9442604293596197	0.5928219610861357	0.7531528481212365	0.8928620917556882	0.5046340970697207	0.6714543672687399	0.7946733498152372	0.5216727887413277	0.6417178139796904	0.8027641945565062	0.5681296574703573	0.6281015815813225	0.8504147836414755	0.3535388489821457	1.2578989825136917	0.9249127671431066	0.3051688521106033	1.0073786248481353	1.0215903034484262	0.32241058572122405	0.7578281579606224	0.9312955580067869	0.37470129162564575	0.6623509060489482	0.9168602770434637	0.3383586467051041	0.6575669901614423	0.8684459052825616	0.3125738671260162	0.6384491692469947	0.9650853085727136	
104	2.1666666666666665	0.5695711109532096	0.8425571721070289	1.00623882607794	0.5601853119670546	0.3304841011340528	1.075354502966189	0.5354513467098936	-0.0807336933734666	1.1458936785065712	0.49409789009265237	-0.1262234976951348	0.943478497978144	0.5609860710651611	-0.1060801759151444	0.9538908683786426	0.510547400088859	-0.17150195562689866	1.2464222992327374	0.38316177839232896	0.8488190672528599	1.0013891518207008	0.3753977530968421	0.357049070306847	1.0689221197883023	0.3705083186493451	-0.10231909881016606	1.186011130514579	0.3491315892665826	-0.10453461186368451	0.9471311841650945	0.29201275047397035	-0.10930913842507695	1.007498207075561	0.38445754439308577	-0.16581877670158668	1.2506345865468682	0.48004131310563225	1.3259619300965177	0.9019499879218276	0.46514806176917606	1.5941664190538416	0.7596003523090997	0.46274760605105314	1.436048209136884	0.7125575063193207	0.6158450224830707	1.2570658920995352	0.8720117984836836	0.6775862781950857	0.9830162889443068	0.9415294489292471	0.6016397876115246	0.750006865422356	0.8929716975453674	0.514070032584024	0.6596845545877117	0.8106273338481889	0.5318701670804117	0.6316073634382666	0.8176955589329681	0.5782353288228281	0.6208965459498745	0.8594438620475121	0.3520177202596855	1.2561894064673986	0.9218993929083691	0.3043204800432391	1.0052060748936438	1.018788062766025	0.31588710600896774	0.7527821482879117	0.9389823787654222	0.3656680398108805	0.6597628216108833	0.9190992611651981	0.32991058144373536	0.6556734004405977	0.8645035057888923	0.30296195084972244	0.6365965988009079	0.9696403629740019	
